<svg width="1280" height="742" viewBox="0 0 1280 742" fill="none" xmlns="http://www.w3.org/2000/svg">
<g clip-path="url(#clip0_2513_42590)">
<path d="M886.357 103.138V-17.0165L24.1493 31.0403L886.357 103.138Z" fill="url(#paint0_linear_2513_42590)"/>
<path d="M985.856 526.029L695.68 506.811L919.509 141.574L985.856 526.029Z" fill="url(#paint1_linear_2513_42590)"/>
<path d="M141.867 -180.009L24.1493 31.0403L46.7626 -180.009H141.867Z" fill="url(#paint2_linear_2513_42590)"/>
<path d="M46.7627 -180.009L24.1493 31.0403L-141.653 535.65L1.57868 -180.009H46.7627Z" fill="url(#paint3_linear_2513_42590)"/>
<path d="M1.57868 -180.009L-141.653 535.65L-1.36532 -180.009H1.57868Z" fill="url(#paint4_linear_2513_42590)"/>
<path d="M1441.83 271.325L919.509 141.574L1027.29 74.2989L1441.83 271.325Z" fill="url(#paint5_linear_2513_42590)"/>
<path d="M1518.89 179.49L1441.83 271.325L1027.29 74.2989L1518.89 91.0681V179.49Z" fill="url(#paint6_linear_2513_42590)"/>
<path d="M919.509 141.574L886.357 103.138L1027.29 74.2989L919.509 141.574Z" fill="url(#paint7_linear_2513_42590)"/>
<path d="M886.357 103.138V-17.0165L1027.29 74.2989L886.357 103.138Z" fill="url(#paint8_linear_2513_42590)"/>
<path d="M1518.89 91.0681L1027.29 74.2989L1518.89 -106.18V91.0681Z" fill="url(#paint9_linear_2513_42590)"/>
<path d="M886.357 -17.0165L969.259 -26.6378L1027.29 74.2989L886.357 -17.0165Z" fill="url(#paint10_linear_2513_42590)"/>
<path d="M1518.89 -106.18L1027.29 74.2989L969.259 -26.6378L1518.89 -107.466V-106.18Z" fill="url(#paint11_linear_2513_42590)"/>
<path d="M1518.89 487.741L1275.99 410.697L1518.89 446.585V487.741Z" fill="url(#paint12_linear_2513_42590)"/>
<path d="M985.856 526.029L919.509 141.574L1275.99 410.697L985.856 526.029Z" fill="url(#paint13_linear_2513_42590)"/>
<path d="M1518.89 446.585L1275.99 410.697L1518.89 371.42V446.585Z" fill="url(#paint14_linear_2513_42590)"/>
<path d="M1518.89 371.421L1275.99 410.697L1441.83 271.325L1518.89 304.368V371.421Z" fill="url(#paint15_linear_2513_42590)"/>
<path d="M1441.83 271.325L919.509 141.574L1275.99 410.697L1441.83 271.325Z" fill="url(#paint16_linear_2513_42590)"/>
<path d="M5.54666 914.441L-141.653 535.65L-42.1547 766.338L10.5813 914.441H5.54666Z" fill="url(#paint17_linear_2513_42590)"/>
<path d="M-141.653 535.65L24.1493 31.0403L405.504 333.801L-141.653 535.65Z" fill="url(#paint18_linear_2513_42590)"/>
<path d="M695.68 506.811L919.509 141.574L405.504 333.801L695.68 506.811Z" fill="url(#paint19_linear_2513_42590)"/>
<path d="M919.509 141.574L886.357 103.138L405.504 333.801L919.509 141.574Z" fill="url(#paint20_linear_2513_42590)"/>
<path d="M886.357 103.138L24.1493 31.0403L405.504 333.801L886.357 103.138Z" fill="url(#paint21_linear_2513_42590)"/>
<path d="M339.2 689.442L-141.653 535.65L405.504 333.801L339.2 689.442Z" fill="url(#paint22_linear_2513_42590)"/>
<path d="M339.2 689.442L695.68 506.811L405.504 333.801L339.2 689.442Z" fill="url(#paint23_linear_2513_42590)"/>
<path d="M715.435 -180.009L886.357 -17.0165L24.1493 31.0403L459.861 -180.009H715.435Z" fill="url(#paint24_linear_2513_42590)"/>
<path d="M459.861 -180.009L24.1493 31.0403L141.867 -180.009H459.861Z" fill="url(#paint25_linear_2513_42590)"/>
</g>
<defs>
<linearGradient id="paint0_linear_2513_42590" x1="1015.65" y1="85.0926" x2="982.805" y2="-150.615" gradientUnits="userSpaceOnUse">
<stop stop-color="#04202B"/>
<stop offset="1" stop-color="#06595E"/>
</linearGradient>
<linearGradient id="paint1_linear_2513_42590" x1="972.919" y1="543.285" x2="603.011" y2="264.108" gradientUnits="userSpaceOnUse">
<stop stop-color="#111827" stop-opacity="0"/>
<stop offset="1" stop-color="#041E28"/>
</linearGradient>
<linearGradient id="paint2_linear_2513_42590" x1="206.255" y1="249.557" x2="-257.328" y2="72.978" gradientUnits="userSpaceOnUse">
<stop stop-color="#053134"/>
<stop offset="1" stop-color="#000F10"/>
</linearGradient>
<linearGradient id="paint3_linear_2513_42590" x1="53.5" y1="167" x2="-75.3236" y2="177.496" gradientUnits="userSpaceOnUse">
<stop stop-color="#022222"/>
<stop offset="1" stop-color="#457582"/>
</linearGradient>
<linearGradient id="paint4_linear_2513_42590" x1="53.5552" y1="808.471" x2="-425.428" y2="714.527" gradientUnits="userSpaceOnUse">
<stop stop-color="#657A7A"/>
<stop offset="1" stop-color="#032B31"/>
</linearGradient>
<linearGradient id="paint5_linear_2513_42590" x1="1424.36" y1="277.993" x2="1294.1" y2="-67.1099" gradientUnits="userSpaceOnUse">
<stop stop-color="#073144"/>
<stop offset="1" stop-color="#011A21"/>
</linearGradient>
<linearGradient id="paint6_linear_2513_42590" x1="1664.75" y1="245.644" x2="1542.06" y2="-105.562" gradientUnits="userSpaceOnUse">
<stop stop-color="#064048"/>
<stop offset="1" stop-color="#014B4C"/>
</linearGradient>
<linearGradient id="paint7_linear_2513_42590" x1="1035.6" y1="137.619" x2="983.286" y2="28.034" gradientUnits="userSpaceOnUse">
<stop stop-color="#031E29"/>
<stop offset="1" stop-color="#01181E"/>
</linearGradient>
<linearGradient id="paint8_linear_2513_42590" x1="1000.5" y1="125.964" x2="881.867" y2="-13.1917" gradientUnits="userSpaceOnUse">
<stop stop-color="#011B23"/>
<stop offset="1" stop-color="#003437"/>
</linearGradient>
<linearGradient id="paint9_linear_2513_42590" x1="1353" y1="122" x2="1412.23" y2="-47.3919" gradientUnits="userSpaceOnUse">
<stop stop-color="#005050"/>
<stop offset="1" stop-color="#0EA3A4"/>
</linearGradient>
<linearGradient id="paint10_linear_2513_42590" x1="1044.67" y1="61.8581" x2="949.126" y2="-71.5646" gradientUnits="userSpaceOnUse">
<stop stop-color="#006161"/>
<stop offset="1" stop-color="#00474A"/>
</linearGradient>
<linearGradient id="paint11_linear_2513_42590" x1="1452.5" y1="251" x2="1460.26" y2="-101.879" gradientUnits="userSpaceOnUse">
<stop stop-color="#014D78"/>
<stop offset="1" stop-color="#005051"/>
</linearGradient>
<linearGradient id="paint12_linear_2513_42590" x1="1747.91" y1="539.79" x2="1667.51" y2="286.433" gradientUnits="userSpaceOnUse">
<stop stop-color="#1A678D"/>
<stop offset="1" stop-color="#16526D"/>
</linearGradient>
<linearGradient id="paint13_linear_2513_42590" x1="1230.21" y1="575.537" x2="846.837" y2="219.88" gradientUnits="userSpaceOnUse">
<stop stop-color="#111827" stop-opacity="0"/>
<stop offset="1" stop-color="#0F394B"/>
</linearGradient>
<linearGradient id="paint14_linear_2513_42590" x1="1692.69" y1="474.952" x2="1629.51" y2="252.62" gradientUnits="userSpaceOnUse">
<stop stop-color="#022128"/>
<stop offset="1" stop-color="#0A3847"/>
</linearGradient>
<linearGradient id="paint15_linear_2513_42590" x1="1584.85" y1="429.331" x2="1490.33" y2="187.555" gradientUnits="userSpaceOnUse">
<stop stop-color="#031A22"/>
<stop offset="1" stop-color="#174B63"/>
</linearGradient>
<linearGradient id="paint16_linear_2513_42590" x1="1468.18" y1="397.133" x2="1248.78" y2="-28.2138" gradientUnits="userSpaceOnUse">
<stop stop-color="#072531"/>
<stop offset="1" stop-color="#092937"/>
</linearGradient>
<linearGradient id="paint17_linear_2513_42590" x1="68.0619" y1="1062.5" x2="-291.943" y2="922.702" gradientUnits="userSpaceOnUse">
<stop stop-color="#F4F6FC"/>
<stop offset="1" stop-color="#629EB6"/>
</linearGradient>
<linearGradient id="paint18_linear_2513_42590" x1="323.388" y1="611.193" x2="-179.56" y2="65.8323" gradientUnits="userSpaceOnUse">
<stop stop-color="#287572" stop-opacity="0.34"/>
<stop offset="1" stop-color="#022222"/>
</linearGradient>
<linearGradient id="paint19_linear_2513_42590" x1="980.561" y1="463.597" x2="635.421" y2="-21.8664" gradientUnits="userSpaceOnUse">
<stop stop-color="#030F13"/>
<stop offset="1" stop-color="#0F394B"/>
</linearGradient>
<linearGradient id="paint20_linear_2513_42590" x1="911.253" y1="337.491" x2="738.916" y2="-46.5116" gradientUnits="userSpaceOnUse">
<stop stop-color="#011B23"/>
<stop offset="1" stop-color="#003437"/>
</linearGradient>
<linearGradient id="paint21_linear_2513_42590" x1="930.453" y1="318.429" x2="741.164" y2="-220.617" gradientUnits="userSpaceOnUse">
<stop stop-color="#002A2C"/>
<stop offset="1" stop-color="#022D2E"/>
</linearGradient>
<linearGradient id="paint22_linear_2513_42590" x1="183.5" y1="724" x2="145.506" y2="208.633" gradientUnits="userSpaceOnUse">
<stop offset="0.36" stop-color="#265555" stop-opacity="0"/>
<stop offset="1" stop-color="#00958C"/>
</linearGradient>
<linearGradient id="paint23_linear_2513_42590" x1="380.378" y1="512" x2="382.147" y2="339.225" gradientUnits="userSpaceOnUse">
<stop stop-opacity="0"/>
<stop offset="1" stop-color="#012735" stop-opacity="0.84"/>
</linearGradient>
<linearGradient id="paint24_linear_2513_42590" x1="783.134" y1="66.0207" x2="604.446" y2="-459.518" gradientUnits="userSpaceOnUse">
<stop stop-color="#045757"/>
<stop offset="1" stop-color="#015B5C"/>
</linearGradient>
<linearGradient id="paint25_linear_2513_42590" x1="502.805" y1="130.592" x2="40.489" y2="-457.483" gradientUnits="userSpaceOnUse">
<stop stop-color="#05393C"/>
<stop offset="1" stop-color="#011E20"/>
</linearGradient>
<clipPath id="clip0_2513_42590">
<rect width="1280" height="742" fill="white"/>
</clipPath>
</defs>
</svg>
